{"title":"The.Hunted.1995.iNTERNAL.DVDRip.XviD-EXViDiNT","uid":6139457,"size":1467998925,"categoryP":"video","categoryS":"movies","magnet":"?xt=urn:btih:97b0d8c1c2c62562cc32979e0fca6833537a1b26&amp;dn=The.Hunted.1995.iNTERNAL.DVDRip.XviD-EXViDiNT&amp;tr=udp%3A%2F%2Ftracker.openbittorrent.com%3A80&amp;tr=udp%3A%2F%2Fopen.demonii.com%3A1337&amp;tr=udp%3A%2F%2Ftracker.coppersurfer.tk%3A6969&amp;tr=udp%3A%2F%2Fexodus.desync.com%3A6969","seeders":2,"leechers":0,"uploader":"TvTeam","files":7,"time":1296439781,"description":". \n  &lt;a href=&quot;\nhttp://www.torrentday.com/&quot; rel=&quot;nofollow&quot; target=&quot;_NEW&quot;&gt;\nhttp://www.torrentday.com/&lt;/a&gt;        :     The Hottest Private Tracker On The Net!!!\n &lt;a href=&quot;\nhttp://www.torrentday.com&quot; rel=&quot;nofollow&quot; target=&quot;_NEW&quot;&gt;\nhttp://www.torrentday.com&lt;/a&gt;          :     Once &amp; For all ;)\n\n\n               www . TorrentDay . Com \n\n(((((((((((((= Enjoy No RAR releases =))))))))))))))))))))\n\n\n...................................NFO:....................................\n\n.                                                                                                     \n       \n     \n     \n       \n       \n     \n     \n                                         \n                                         \n                EXVID                    \n                                         \n         \n                                         \n         Filled the Archives             \n                                         \n         \n                                         \n                With:                    \n                                         \n         \n                                         \n                                    \n     E240                           \n                                    \n     SP               (C) 2009      \n                                         \n     \n     \n     \n                                                                                  \n                                                                                   \n             The.Hunted.1995.iNTERNAL.DVDRip.XviD-EXViDiNT                          \n                                                                                   \n                                                                                  \n     \n                                                                                               \nEXViD aims to iNTERNAL those releases which have been lost in the archives.\nEXViD aims to PRE non-internal releases which have poor sources and are likely skipped by others.\n &lt;a href=&quot;\nhttp://www.imdb.com/title/tt0113360/&quot; rel=&quot;nofollow&quot; target=&quot;_NEW&quot;&gt;\nhttp://www.imdb.com/title/tt0113360/&lt;/a&gt;\nSubtitles: EN, FR, PT, DK, FI, SV, NO, DE, NL, CZ, PL, TR, HU, BU, EN FD\nDate: 2011.01\n\nDirector: J.F. Lawton\n\nGenres:\nAction | Drama | Thriller\n\nPlot:\nPaul is on one of his many business trips to Tokyo, as a computer-chip executive from New York,\nwhen he meets a beautiful and mysterious woman. Later, he finds himself in the wrong place at\nthe wrong time, inadvertently interrupting an assassination by a feared Ninja-cult.\nAs he is now the only man to have seen the face of the cult's warrior-leader and lived,\nhe soon realizes that he is facing a markedly foreshortened life-expectancy. Teaming up with\na friendly samurai couple, on a two-centuries-old blood-feud with the Ninja, he struggles\nto survive. Finally, recuperating on an island-fortress, he learns swordsmanship, and perhaps,\na little about courage, honor, love, and loyalty. The requisite final confrontation is rife\nwith bloody swordplay and spectacular martial-arts action sequences. \n\nCast:\nCredited cast:\nChristopher Lambert  ...  Paul Racine  \nJohn Lone  ...  Kinjo  \nJoan Chen  ...  Kirina  \nYoshio Harada  ...  Takeda Sensei  \nYko Shimada  ...  Mieko Takeda  \nMari Natsuki  ...  Junko  \nTak Kubota  ...  Oshima  \nMasumi Okada  ...  Lt. Wadakura  \nTatsuya Irie  ...  Hiryu  \nMichael Warren  ...  Chase  \nBart Anderson  ...  John  \nJames Saito  ...  Nemura  \nSeth Sakai  ...  Dr. Otozo Yamura  \nToshir Obata  ...  Ryuma  \nKen Kensei  ...  Sujin     \n\nStats:\nFormat                           : AVI\nFormat/Info                      : Audio Video Interleave\nFile size                        : 1.37 GiB\nDuration                         : 1h 45mn\nOverall bit rate                 : 1 853 Kbps\nWriting application              : VirtualDubMod 1.5.10.2 (build 2540/release)\nWriting library                  : VirtualDubMod build 2540/release\n\nVideo\nID                               : 0\nFormat                           : MPEG-4 Visual\nFormat profile                   : Advanced Simple@L5\nFormat settings, BVOP            : Yes\nFormat settings, QPel            : No\nFormat settings, GMC             : No warppoints\nFormat settings, Matrix          : Default (H.263)\nMuxing mode                      : Packed bitstream\nCodec ID                         : XVID\nCodec ID/Hint                    : XviD\nDuration                         : 1h 45mn\nBit rate                         : 1 460 Kbps\nWidth                            : 624 pixels\nHeight                           : 336 pixels\nDisplay aspect ratio             : 1.857\nFrame rate                       : 25.000 fps\nColor space                      : YUV\nChroma subsampling               : 4:2:0\nBit depth                        : 8 bits\nScan type                        : Progressive\nBits/(Pixel*Frame)               : 0.278\nStream size                      : 1.08 GiB (79%)\nWriting library                  : XviD 1.2.1 (UTC 2008-12-04)\n\nAudio\nID                               : 1\nFormat                           : AC-3\nFormat/Info                      : Audio Coding 3\nMode extension                   : CM (complete main)\nCodec ID                         : 2000\nDuration                         : 1h 45mn\nBit rate mode                    : Constant\nBit rate                         : 384 Kbps\nChannel(s)                       : 6 channels\nChannel positions                : Front: L C R, Side: L R, LFE\nSampling rate                    : 48.0 KHz\nBit depth                        : 16 bits\nStream size                      : 290 MiB (21%)\nAlignment                        : Split accross interleaves\nInterleave, duration             : 40 ms (1.00 video frame)\nInterleave, preload duration     : 500 ms\n\n\n\n\nRelease notes:\nAlways liked this one.\n\nEnjoy!\n\nLooking for:\n75TB+ Archives\nDUTCH/FLEMiSH Archives\n                                                                                                    \nGreets: CRBS EPiSODE FiCO FLS iLS KLASSiGER LiPSYNC MADE NODLABS RUNNER TNAN       \n   \n\n                                                                    ASCII DONE BY XX^NFO 2oo9","torrent":{"xt":"urn:btih:97b0d8c1c2c62562cc32979e0fca6833537a1b26","amp;dn":"The.Hunted.1995.iNTERNAL.DVDRip.XviD-EXViDiNT","amp;tr":["udp%3A%2F%2Ftracker.openbittorrent.com%3A80","udp%3A%2F%2Fopen.demonii.com%3A1337","udp%3A%2F%2Ftracker.coppersurfer.tk%3A6969","udp%3A%2F%2Fexodus.desync.com%3A6969"],"infoHash":"97b0d8c1c2c62562cc32979e0fca6833537a1b26","infoHashBuffer":{"type":"Buffer","data":[151,176,216,193,194,198,37,98,204,50,151,158,15,202,104,51,83,122,27,38]},"announce":[],"urlList":[]}}